<?xml version="1.0" encoding="utf-8"?>
<!-- Generator: Adobe Illustrator 22.1.0, SVG Export Plug-In . SVG Version: 6.00 Build 0)  -->
<svg version="1.0" id="圖層_1" xmlns="http://www.w3.org/2000/svg" xmlns:xlink="http://www.w3.org/1999/xlink" x="0px" y="0px"
	 viewBox="0 0 150 150" style="enable-background:new 0 0 150 150;" xml:space="preserve">
<style type="text/css">
	.st0{fill:#FFFFFF;}
	.st1{fill:none;stroke:#A96F2F;stroke-width:2.0663;stroke-miterlimit:10;}
	.st2{fill:none;stroke:#A96F2F;stroke-width:2.0663;stroke-linecap:round;stroke-linejoin:round;stroke-miterlimit:10;}
	.st3{fill:none;stroke:#A96F2F;stroke-width:1.3776;stroke-miterlimit:10;}
	.st4{fill:none;stroke:#A96F2F;stroke-width:2;stroke-miterlimit:10;}
	.st5{fill:#FFFFFF;stroke:#A96F2F;stroke-width:1.6;stroke-miterlimit:10;}
	.st6{fill:none;stroke:#A96F2F;stroke-width:4.1327;stroke-miterlimit:10;}
	.st7{fill:#A96F2F;}
	.st8{stroke:#000000;stroke-width:0.5;stroke-miterlimit:10;}
</style>
<rect class="st0" width="150" height="150"/>
<g>
	<path class="st1" d="M111.6,72.1c0,21.8-16.1,43.7-36,43.7c-14.8,0-27.6-12.2-33.1-27.4"/>
	<path class="st2" d="M46.2,30.9c0,0-12.7,0.9-16.5,43.9C28.9,85,28.9,93.8,30,101.3c2.4,17.2,17.4,29.7,34.7,29.6l21.9-0.2
		c17.8-0.2,32.7-13.9,34-31.6c0.2-3,0.3-6.3,0-9.8c-3.1-49.7-20.7-65.3-35.2-68.7C59.4,14.4,50.4,29,50.4,29"/>
	<path class="st2" d="M56,38.2c-9.4,7.1-5,56.6-20.5,53.5"/>
	<path class="st2" d="M57.9,42.4c0,0-4.3,13.6,2.7,21c4.4,4.7,10.7,8.1,21.5,4.6c13.4-4.3,27.8,8.8,32.4,4.5"/>
	<path class="st3" d="M72.5,89.3c0,0,3.3,2.1,6.2,0.2"/>
	<path class="st4" d="M111.1,75.5c0,0,6.4-1.5,5,7.3c-1.6,10-9,7.7-9,7.7"/>
	<path class="st5" d="M81.6,99.5c0,2.1-2.5,2.5-5.7,2.5s-6.2-0.5-6.2-2.5c0-2.1,2.7-3.8,6-3.8S81.6,97.5,81.6,99.5z"/>
	<path class="st6" d="M95,81.4"/>
	<path class="st6" d="M83.5,81.4"/>
	<g>
		<path class="st5" d="M95.4,79.6c0,3.3-2.5,4-5.7,4s-6.2-0.7-6.2-4s2.7-6,6-6S95.4,76.3,95.4,79.6z"/>
		<path class="st5" d="M67.6,79.6c0,3.3-2.5,4-5.7,4s-6.2-0.7-6.2-4s2.7-6,6-6S67.6,76.3,67.6,79.6z"/>
		<path class="st6" d="M67.7,79.5"/>
		<path class="st6" d="M56.2,79.5"/>
		<circle class="st7" cx="63.8" cy="79.5" r="3.6"/>
		<circle class="st7" cx="92.3" cy="79.5" r="3.6"/>
	</g>
	<ellipse class="st7" cx="51.8" cy="88" rx="4.7" ry="2"/>
	<ellipse class="st7" cx="98.2" cy="88" rx="4.7" ry="2"/>
</g>
<path class="st8" d="M95,138.7H58.3c-4.4,0-8-3.6-8-8v0c0-4.4,3.6-8,8-8H95c4.4,0,8,3.6,8,8v0C103,135.1,99.4,138.7,95,138.7z"/>
<g>
	<g>
		<path class="st0" d="M58.7,129.3c0,1.8-0.2,3.4-0.9,5.1c0.5,0.1,0.9,0.3,1.4,0.4c0.1-1.1,0.4-2.5,1.3-3.2c1.6-1.4,1.9,0.5,1.8,1.8
			c-0.1,0.9,1.2,1,1.5,0.2c0.3-1.2,1.2-3.8,2.3-2.1c0.5,0.7,0.1,1.8,0.6,2.5c0.6,1,1.8,0.7,2.7,0.2c0.8-0.5,0.1-1.8-0.8-1.3
			c-0.6,0.3-1.2-2.3-1.4-2.6c-0.4-0.6-0.9-1.1-1.7-1.2c-1.9-0.1-2.8,2.6-3.2,4c0.5,0.1,1,0.1,1.5,0.2c0.2-1.7-0.2-5-2.7-4.1
			c-2.2,0.8-3.2,3.4-3.4,5.5c-0.1,0.7,1.1,1.1,1.4,0.4c0.8-1.9,1.2-3.8,1.1-5.8C60.2,128.3,58.7,128.3,58.7,129.3L58.7,129.3z"/>
	</g>
</g>
<g>
	<g>
		<path class="st0" d="M69.2,130.4c-0.1,1.5-0.1,3.2,1.6,3.8c1.3,0.4,3,0.1,3.5-1.3c0.5-1.3,0-3-1.1-3.7c-1.1-0.7-2.7-0.5-3.2,0.7
			c-0.4,0.9,0.9,1.6,1.3,0.8c0.7-1.4,2.3,0.9,1.6,1.9c-0.4,0.5-1.4,0.4-1.9,0.1c-0.6-0.5-0.4-1.6-0.3-2.3
			C70.8,129.4,69.3,129.4,69.2,130.4L69.2,130.4z"/>
	</g>
</g>
<g>
	<g>
		<path class="st0" d="M89.5,129.8c-0.1,1.5-0.1,3.2,1.6,3.8c1.3,0.4,3,0.1,3.5-1.3c0.5-1.3,0-3-1.1-3.7c-1.1-0.7-2.7-0.5-3.2,0.7
			c-0.4,0.9,0.9,1.6,1.3,0.8c0.7-1.4,2.3,0.9,1.6,1.9c-0.4,0.5-1.4,0.4-1.9,0.1c-0.6-0.5-0.4-1.6-0.3-2.3
			C91.1,128.9,89.6,128.9,89.5,129.8L89.5,129.8z"/>
	</g>
</g>
<g>
	<g>
		<path class="st0" d="M76.8,129.6c-0.3,1.7,0.1,3.1,1.5,4.3c0.4,0.3,1.1,0.3,1.3-0.3c0.1-0.7,0.1-1.4,0.8-1.7
			c0.8-0.4,0.8,0.2,1.4,1c0.4,0.5,1.2,0.5,1.4-0.2c0.1-0.4,0.9-2.5,1-2.5c0.2,0,1.1,2.2,1.2,2.4c0.4,0.6,0.8,1.4,1.6,1.5
			c1.9,0.2,2.8-2.4,3.1-3.8c0.2-0.9-1.2-1.3-1.4-0.4c-0.2,0.9-0.5,2.7-2,2c-0.4-0.2-0.8-1.6-1-2c-0.3-0.6-0.6-1.2-1.4-1.3
			c-1.5-0.1-2.2,2.6-2.5,3.7c0.5-0.1,0.9-0.1,1.4-0.2c-0.6-0.8-1.4-2.8-2.7-2.7c-1.5,0.1-2,2.7-2.2,3.8c0.4-0.1,0.8-0.2,1.3-0.3
			c-0.9-0.7-1.3-1.6-1.1-2.9C78.4,129,76.9,128.6,76.8,129.6L76.8,129.6z"/>
	</g>
</g>
</svg>
