<?xml version="1.0" encoding="utf-8"?>
<!-- Generator: Adobe Illustrator 22.1.0, SVG Export Plug-In . SVG Version: 6.00 Build 0)  -->
<svg version="1.1" id="圖層_1" xmlns="http://www.w3.org/2000/svg" xmlns:xlink="http://www.w3.org/1999/xlink" x="0px" y="0px"
	 viewBox="0 0 100 100" style="enable-background:new 0 0 100 100;" xml:space="preserve">
<style type="text/css">
	.st0{opacity:0.75;}
	.st1{fill:#FFFFFF;}
	.st2{opacity:0.55;}
</style>
<path d="M75,100H25C11.2,100,0,88.8,0,75V25C0,11.2,11.2,0,25,0h50c13.8,0,25,11.2,25,25v50C100,88.8,88.8,100,75,100z"/>
<g>
	<g class="st0">
		<path class="st1" d="M30.3,25.9c-3.1-2-7.2,0.2-7.2,3.9v28.9l27.5-19.4L30.3,25.9z"/>
	</g>
	<g class="st2">
		<path class="st1" d="M69.7,25.9L50.6,39.3L23.1,58.7v11.6c0,2.5,2,4.6,4.5,4.6l22.5,0l22.1,0c2.6,0,4.6-2.1,4.6-4.6V29.7
			C76.9,26,72.8,23.8,69.7,25.9z"/>
	</g>
</g>
</svg>
